<mxfile host="app.diagrams.net" modified="2021-11-16T08:01:36.075Z" agent="5.0 (Windows NT 10.0; Win64; x64) AppleWebKit/537.36 (KHTML, like Gecko) Chrome/96.0.4664.45 Safari/537.36" etag="GNwqnYTmTNtlT1StMUYE" version="15.7.4" type="github">
  <diagram id="C5RBs43oDa-KdzZeNtuy" name="Page-1">
    <mxGraphModel dx="920" dy="541" grid="1" gridSize="10" guides="1" tooltips="1" connect="1" arrows="1" fold="1" page="1" pageScale="1" pageWidth="827" pageHeight="1169" math="0" shadow="0">
      <root>
        <mxCell id="WIyWlLk6GJQsqaUBKTNV-0" />
        <mxCell id="WIyWlLk6GJQsqaUBKTNV-1" parent="WIyWlLk6GJQsqaUBKTNV-0" />
        <mxCell id="CDYwntitoinyklaIqtOv-2" style="edgeStyle=orthogonalEdgeStyle;rounded=0;orthogonalLoop=1;jettySize=auto;html=1;entryX=0.5;entryY=0;entryDx=0;entryDy=0;" edge="1" parent="WIyWlLk6GJQsqaUBKTNV-1" source="CDYwntitoinyklaIqtOv-0" target="CDYwntitoinyklaIqtOv-1">
          <mxGeometry relative="1" as="geometry" />
        </mxCell>
        <mxCell id="CDYwntitoinyklaIqtOv-0" value="Start" style="ellipse;whiteSpace=wrap;html=1;" vertex="1" parent="WIyWlLk6GJQsqaUBKTNV-1">
          <mxGeometry x="310" y="30" width="120" height="80" as="geometry" />
        </mxCell>
        <mxCell id="CDYwntitoinyklaIqtOv-4" style="edgeStyle=orthogonalEdgeStyle;rounded=0;orthogonalLoop=1;jettySize=auto;html=1;" edge="1" parent="WIyWlLk6GJQsqaUBKTNV-1" source="CDYwntitoinyklaIqtOv-1" target="CDYwntitoinyklaIqtOv-3">
          <mxGeometry relative="1" as="geometry" />
        </mxCell>
        <mxCell id="CDYwntitoinyklaIqtOv-1" value="Input Process" style="shape=parallelogram;perimeter=parallelogramPerimeter;whiteSpace=wrap;html=1;fixedSize=1;" vertex="1" parent="WIyWlLk6GJQsqaUBKTNV-1">
          <mxGeometry x="310" y="160" width="120" height="60" as="geometry" />
        </mxCell>
        <mxCell id="CDYwntitoinyklaIqtOv-10" style="edgeStyle=orthogonalEdgeStyle;rounded=0;orthogonalLoop=1;jettySize=auto;html=1;entryX=0.5;entryY=0;entryDx=0;entryDy=0;" edge="1" parent="WIyWlLk6GJQsqaUBKTNV-1" source="CDYwntitoinyklaIqtOv-3" target="CDYwntitoinyklaIqtOv-9">
          <mxGeometry relative="1" as="geometry">
            <Array as="points">
              <mxPoint x="360" y="350" />
              <mxPoint x="360" y="350" />
            </Array>
          </mxGeometry>
        </mxCell>
        <mxCell id="CDYwntitoinyklaIqtOv-3" value="Queue.push(Process(Ready))&lt;br&gt;P=Queue.font()" style="rounded=0;whiteSpace=wrap;html=1;" vertex="1" parent="WIyWlLk6GJQsqaUBKTNV-1">
          <mxGeometry x="270" y="270" width="200" height="60" as="geometry" />
        </mxCell>
        <mxCell id="CDYwntitoinyklaIqtOv-18" style="edgeStyle=orthogonalEdgeStyle;rounded=0;orthogonalLoop=1;jettySize=auto;html=1;entryX=0;entryY=0.5;entryDx=0;entryDy=0;" edge="1" parent="WIyWlLk6GJQsqaUBKTNV-1" source="CDYwntitoinyklaIqtOv-9" target="CDYwntitoinyklaIqtOv-12">
          <mxGeometry relative="1" as="geometry" />
        </mxCell>
        <mxCell id="CDYwntitoinyklaIqtOv-30" style="edgeStyle=orthogonalEdgeStyle;rounded=0;orthogonalLoop=1;jettySize=auto;html=1;entryX=0.5;entryY=0;entryDx=0;entryDy=0;" edge="1" parent="WIyWlLk6GJQsqaUBKTNV-1" source="CDYwntitoinyklaIqtOv-9" target="CDYwntitoinyklaIqtOv-29">
          <mxGeometry relative="1" as="geometry">
            <mxPoint x="360" y="550" as="targetPoint" />
          </mxGeometry>
        </mxCell>
        <mxCell id="CDYwntitoinyklaIqtOv-9" value="P.Burst&amp;gt;QuantumTime" style="rhombus;whiteSpace=wrap;html=1;" vertex="1" parent="WIyWlLk6GJQsqaUBKTNV-1">
          <mxGeometry x="260" y="400" width="200" height="80" as="geometry" />
        </mxCell>
        <mxCell id="CDYwntitoinyklaIqtOv-24" style="edgeStyle=orthogonalEdgeStyle;rounded=0;orthogonalLoop=1;jettySize=auto;html=1;entryX=1;entryY=0.5;entryDx=0;entryDy=0;" edge="1" parent="WIyWlLk6GJQsqaUBKTNV-1" target="CDYwntitoinyklaIqtOv-3">
          <mxGeometry relative="1" as="geometry">
            <mxPoint x="675" y="290" as="targetPoint" />
            <mxPoint x="680" y="300" as="sourcePoint" />
          </mxGeometry>
        </mxCell>
        <mxCell id="CDYwntitoinyklaIqtOv-12" value="Run(P, QuantumTime)&lt;br&gt;P.Burst-=QuantumTime&lt;br&gt;Queue.pop()&lt;br&gt;Queue.push(P)" style="rounded=0;whiteSpace=wrap;html=1;" vertex="1" parent="WIyWlLk6GJQsqaUBKTNV-1">
          <mxGeometry x="600" y="405" width="150" height="70" as="geometry" />
        </mxCell>
        <mxCell id="CDYwntitoinyklaIqtOv-26" value="" style="endArrow=none;html=1;rounded=0;exitX=0.5;exitY=0;exitDx=0;exitDy=0;" edge="1" parent="WIyWlLk6GJQsqaUBKTNV-1" source="CDYwntitoinyklaIqtOv-12">
          <mxGeometry width="50" height="50" relative="1" as="geometry">
            <mxPoint x="680" y="400" as="sourcePoint" />
            <mxPoint x="675" y="300" as="targetPoint" />
            <Array as="points" />
          </mxGeometry>
        </mxCell>
        <mxCell id="CDYwntitoinyklaIqtOv-28" value="True" style="text;html=1;align=center;verticalAlign=middle;resizable=0;points=[];autosize=1;strokeColor=none;fillColor=none;" vertex="1" parent="WIyWlLk6GJQsqaUBKTNV-1">
          <mxGeometry x="470" y="420" width="40" height="20" as="geometry" />
        </mxCell>
        <mxCell id="CDYwntitoinyklaIqtOv-35" style="edgeStyle=orthogonalEdgeStyle;rounded=0;orthogonalLoop=1;jettySize=auto;html=1;entryX=0.5;entryY=0;entryDx=0;entryDy=0;" edge="1" parent="WIyWlLk6GJQsqaUBKTNV-1" source="CDYwntitoinyklaIqtOv-29" target="CDYwntitoinyklaIqtOv-32">
          <mxGeometry relative="1" as="geometry" />
        </mxCell>
        <mxCell id="CDYwntitoinyklaIqtOv-29" value="Run(P, P.Burst)&lt;br&gt;Queue.pop()" style="whiteSpace=wrap;html=1;" vertex="1" parent="WIyWlLk6GJQsqaUBKTNV-1">
          <mxGeometry x="300" y="555" width="120" height="60" as="geometry" />
        </mxCell>
        <mxCell id="CDYwntitoinyklaIqtOv-31" value="Flase" style="text;html=1;align=center;verticalAlign=middle;resizable=0;points=[];autosize=1;strokeColor=none;fillColor=none;rotation=90;" vertex="1" parent="WIyWlLk6GJQsqaUBKTNV-1">
          <mxGeometry x="350" y="490" width="40" height="20" as="geometry" />
        </mxCell>
        <mxCell id="CDYwntitoinyklaIqtOv-34" style="edgeStyle=orthogonalEdgeStyle;rounded=0;orthogonalLoop=1;jettySize=auto;html=1;entryX=0;entryY=0.5;entryDx=0;entryDy=0;exitX=0;exitY=0.5;exitDx=0;exitDy=0;" edge="1" parent="WIyWlLk6GJQsqaUBKTNV-1" source="CDYwntitoinyklaIqtOv-32" target="CDYwntitoinyklaIqtOv-3">
          <mxGeometry relative="1" as="geometry">
            <Array as="points">
              <mxPoint x="200" y="720" />
              <mxPoint x="200" y="300" />
            </Array>
          </mxGeometry>
        </mxCell>
        <mxCell id="CDYwntitoinyklaIqtOv-38" value="" style="edgeStyle=orthogonalEdgeStyle;rounded=0;orthogonalLoop=1;jettySize=auto;html=1;" edge="1" parent="WIyWlLk6GJQsqaUBKTNV-1" source="CDYwntitoinyklaIqtOv-32" target="CDYwntitoinyklaIqtOv-37">
          <mxGeometry relative="1" as="geometry" />
        </mxCell>
        <mxCell id="CDYwntitoinyklaIqtOv-32" value="Queue.size()=0" style="rhombus;whiteSpace=wrap;html=1;" vertex="1" parent="WIyWlLk6GJQsqaUBKTNV-1">
          <mxGeometry x="305" y="680" width="110" height="80" as="geometry" />
        </mxCell>
        <mxCell id="CDYwntitoinyklaIqtOv-36" value="False" style="text;html=1;align=center;verticalAlign=middle;resizable=0;points=[];autosize=1;strokeColor=none;fillColor=none;" vertex="1" parent="WIyWlLk6GJQsqaUBKTNV-1">
          <mxGeometry x="250" y="700" width="40" height="20" as="geometry" />
        </mxCell>
        <mxCell id="CDYwntitoinyklaIqtOv-37" value="End" style="ellipse;whiteSpace=wrap;html=1;" vertex="1" parent="WIyWlLk6GJQsqaUBKTNV-1">
          <mxGeometry x="300" y="850" width="120" height="60" as="geometry" />
        </mxCell>
        <mxCell id="CDYwntitoinyklaIqtOv-40" value="True" style="text;html=1;align=center;verticalAlign=middle;resizable=0;points=[];autosize=1;strokeColor=none;fillColor=none;rotation=90;" vertex="1" parent="WIyWlLk6GJQsqaUBKTNV-1">
          <mxGeometry x="360" y="770" width="40" height="20" as="geometry" />
        </mxCell>
      </root>
    </mxGraphModel>
  </diagram>
</mxfile>
